<svg version="1.1" id="Layer_1" xmlns="http://www.w3.org/2000/svg" xmlns:xlink="http://www.w3.org/1999/xlink" x="0px" y="0px"
	 width="100%" viewBox="0 0 200 200" enable-background="new 0 0 200 200" xml:space="preserve">
<path fill="#073F75" opacity="1.000000" stroke="none" 
	d="
M119.000000,201.000000 
	C79.357826,201.000000 40.215649,201.000000 1.036737,201.000000 
	C1.036737,134.399536 1.036737,67.799034 1.036737,1.099268 
	C67.558670,1.099268 134.117538,1.099268 200.838196,1.099268 
	C200.838196,67.666351 200.838196,134.333145 200.838196,201.000000 
	C173.799316,201.000000 146.649658,201.000000 119.000000,201.000000 
M54.855701,24.300158 
	C22.214306,45.698818 7.076851,75.921631 12.488245,114.564278 
	C19.308147,163.265045 63.087406,195.721344 112.158089,190.163116 
	C161.598312,184.563004 197.843781,136.738144 189.738968,87.797379 
	C179.275894,24.616352 111.055046,-7.826675 54.855701,24.300158 
z"/>
<path fill="#FDFEFE" opacity="1.000000" stroke="none" 
	d="
M55.179695,24.130381 
	C111.055046,-7.826675 179.275894,24.616352 189.738968,87.797379 
	C197.843781,136.738144 161.598312,184.563004 112.158089,190.163116 
	C63.087406,195.721344 19.308147,163.265045 12.488245,114.564278 
	C7.076851,75.921631 22.214306,45.698818 55.179695,24.130381 
M75.216400,107.433823 
	C75.778946,107.488350 76.341484,107.542870 77.799545,107.423515 
	C81.657639,107.523865 85.515739,107.624214 89.875313,107.867065 
	C90.210083,107.800697 90.544846,107.734322 91.650696,107.436615 
	C92.453629,107.457130 93.256569,107.477654 94.455009,107.744850 
	C94.973747,107.509369 95.492493,107.273888 96.481758,106.519669 
	C101.483910,101.200577 101.025444,97.000893 94.324005,92.447701 
	C89.794212,92.405037 85.264412,92.362373 80.702911,92.281273 
	C80.702911,92.281273 80.657990,92.302841 80.823227,91.493973 
	C80.884613,90.672157 80.945999,89.850342 81.879906,88.671486 
	C87.105476,88.721977 92.331039,88.772476 97.929123,88.851860 
	C98.072258,88.581009 98.215393,88.310158 98.409760,87.260590 
	C98.457520,86.481934 98.505280,85.703285 98.655418,84.606171 
	C98.423615,84.408936 98.191818,84.211700 97.478340,83.971680 
	C97.478340,83.971680 97.015640,83.831184 97.004440,83.415062 
	C97.004440,83.415062 96.998383,82.998833 97.174896,82.912560 
	C97.174896,82.912560 97.193199,82.685913 97.193199,82.685913 
	C97.193199,82.685913 97.001167,83.001602 96.133034,83.007286 
	C93.422173,83.277618 90.711319,83.547951 87.206253,83.943428 
	C86.137558,83.901871 85.068863,83.860321 83.560051,83.463020 
	C82.708031,83.592506 81.856018,83.721992 80.504593,83.976654 
	C80.335449,83.947632 80.166306,83.918602 79.430099,83.474709 
	C75.995674,82.422722 75.018036,84.209755 75.010345,88.037125 
	C74.279015,91.975586 75.274834,95.157219 79.558929,97.563881 
	C81.361313,97.503647 83.163689,97.443405 85.773842,97.260162 
	C86.857941,97.314735 87.942032,97.369301 89.210571,97.647095 
	C89.210571,97.647095 89.622765,97.709427 89.622765,97.709427 
	C89.622765,97.709427 89.963852,97.466682 90.629402,97.345871 
	C91.071640,97.411163 91.513885,97.476448 92.145805,98.146629 
	C93.187866,98.752373 94.229935,99.358116 95.318695,100.848633 
	C93.971741,101.737656 92.685135,103.249817 91.265404,103.387299 
	C88.214012,103.682777 85.094032,103.269997 81.818916,102.846184 
	C81.544571,102.944588 81.270226,103.042992 80.336868,103.326050 
	C79.892342,103.238655 79.447815,103.151253 78.818306,102.781319 
	C78.544914,102.865593 78.271523,102.949860 77.336121,103.189392 
	C76.509010,103.460281 75.681900,103.731171 74.462280,104.437614 
	C74.636803,105.292839 74.811333,106.148071 75.003059,107.000031 
	C75.003059,107.000031 74.995323,107.016670 75.216400,107.433823 
M133.348190,107.431908 
	C133.625153,107.617416 133.902115,107.802925 134.367691,107.945908 
	C134.367691,107.945908 134.467361,108.111603 134.078232,108.967384 
	C132.151794,113.699432 132.733551,118.220757 134.509048,121.867630 
	C139.109894,120.939720 143.134201,120.128090 147.158508,119.316460 
	C145.409210,118.166588 143.674973,117.870476 141.989014,118.043846 
	C138.003693,118.453705 136.461929,116.786942 137.029160,112.887215 
	C137.166122,111.945580 137.009811,110.961281 137.245193,109.423447 
	C137.507248,108.640160 137.769302,107.856873 138.012817,106.160446 
	C138.012817,103.907501 138.012817,101.654556 138.012817,99.041855 
	C141.948120,99.041855 145.358337,99.041855 148.818604,99.041855 
	C149.707108,93.058258 145.093185,95.890678 143.004562,94.127014 
	C143.003326,93.118431 143.002106,92.109856 143.851852,90.947441 
	C144.677368,90.935425 145.600464,91.157883 146.308334,90.863235 
	C147.844559,90.223801 149.270798,89.320114 150.742004,88.524467 
	C149.324661,87.692146 147.955109,86.259613 146.480850,86.142258 
	C142.378647,85.815727 138.232956,86.035362 133.639313,86.140228 
	C133.531693,86.781487 133.424088,87.422752 133.544571,88.964584 
	C133.630157,94.651848 133.715744,100.339119 133.542374,106.525909 
	C133.507004,106.710144 133.471619,106.894386 133.348190,107.431908 
M22.141054,107.774048 
	C22.141054,107.774048 22.029795,107.946732 22.014679,108.626381 
	C22.009623,109.079369 22.004568,109.532356 21.494076,110.640060 
	C21.356894,114.429878 21.058851,118.225563 21.196747,122.005348 
	C21.230801,122.938850 22.681723,123.820679 23.481316,124.726257 
	C24.291912,123.833488 25.529339,123.057495 25.812998,122.020576 
	C26.237751,120.467903 25.751757,118.676674 26.115267,117.092979 
	C26.363506,116.011490 27.341831,114.317749 28.093199,114.263008 
	C31.882635,113.986931 35.718033,113.994492 39.505077,114.300858 
	C40.348312,114.369064 41.825012,116.218163 41.659431,116.935555 
	C41.398701,118.065155 40.094963,119.610863 39.050953,119.767349 
	C36.812824,120.102852 34.447872,119.479141 32.155853,119.611603 
	C30.824629,119.688538 29.534126,120.470108 28.225302,120.934608 
	C29.433043,121.818672 30.588892,123.365685 31.858057,123.465034 
	C36.005360,123.789673 40.193951,123.586800 44.538845,123.586800 
	C47.765251,111.987350 46.911964,110.098206 38.230007,109.507919 
	C38.481747,109.043877 38.733486,108.579834 39.798225,107.949722 
	C40.862919,107.744179 41.927608,107.538635 43.315937,107.454453 
	C43.596096,107.398460 43.718094,107.228722 44.154194,106.320107 
	C44.780994,104.529518 45.660099,102.782417 45.977924,100.938576 
	C46.510063,97.851379 46.593639,94.689743 47.030960,91.582649 
	C47.629890,87.327362 45.889473,85.000740 41.416321,84.909950 
	C34.935875,84.778412 28.450026,84.913200 22.036819,84.813484 
	C22.036819,84.813484 21.966253,84.844688 21.937063,85.748703 
	C21.885672,92.840530 21.834280,99.932350 21.604513,107.300217 
	C21.604513,107.300217 21.778357,107.579437 21.778357,107.579437 
	C21.778357,107.579437 22.107267,107.571434 22.141054,107.774048 
M63.513321,106.341660 
	C63.326756,98.903397 63.140194,91.465141 62.155163,83.913177 
	C57.475773,83.092804 55.696556,86.992195 53.159084,89.566727 
	C52.769085,89.962425 53.104641,91.073235 53.104641,91.903168 
	C54.712322,91.550644 55.976486,91.273445 56.647419,91.126328 
	C57.098267,96.819321 57.542679,102.431107 57.652576,108.800064 
	C57.436722,112.405022 56.939594,116.025780 57.140659,119.607330 
	C57.223419,121.081451 58.808567,122.471230 59.710342,123.899376 
	C60.803608,122.390602 62.663868,120.965683 62.839775,119.356628 
	C63.286041,115.274551 62.977283,111.109932 62.999203,106.997047 
	C62.999203,106.997047 62.976940,106.970016 63.513321,106.341660 
M97.723869,120.759583 
	C100.291565,115.419403 98.950119,110.918808 94.037544,110.356209 
	C88.797607,109.756119 83.433800,110.105171 78.132545,110.287018 
	C77.097282,110.322525 76.100853,111.489967 75.086510,112.135315 
	C75.177132,112.756111 75.267761,113.376900 75.358391,113.997696 
	C79.856102,113.997696 84.376335,114.278908 88.845360,113.920822 
	C93.579155,113.541527 95.814705,115.061737 94.060776,119.998810 
	C88.135857,121.002625 81.216087,117.577415 76.393066,123.887428 
	C82.776031,124.303093 89.028625,123.852135 95.257996,123.184593 
	C95.911850,123.114517 96.428764,121.766693 97.723869,120.759583 
M111.345711,109.291550 
	C104.582214,111.519432 101.933014,117.697441 105.755455,122.631775 
	C106.091743,122.278770 106.644135,121.975304 106.692390,121.605972 
	C107.238297,117.427834 108.812485,114.367569 113.644798,113.996841 
	C120.667496,113.458076 121.795662,114.060379 125.070389,120.463280 
	C125.502403,121.307983 126.626335,121.798798 127.429810,122.453514 
	C127.841133,121.483917 128.655167,120.490334 128.599106,119.548569 
	C128.204010,112.913406 123.645515,110.331856 118.270103,108.295639 
	C123.552185,107.719612 127.368362,105.231171 129.440125,99.691040 
	C129.403885,99.131447 129.367661,98.571846 129.249680,97.356926 
	C129.280670,96.918793 129.311661,96.480652 129.848312,95.916946 
	C129.610519,95.270393 129.372726,94.623848 128.836182,93.346252 
	C126.224770,90.859489 123.613365,88.372719 120.356354,85.452438 
	C117.570839,85.609955 114.785316,85.767471 111.401421,86.188896 
	C110.037323,86.836784 108.673225,87.484680 106.773827,88.385796 
	C106.568390,88.714531 106.362953,89.043266 105.935349,90.012238 
	C105.206078,91.674362 104.476814,93.336479 103.499832,95.182350 
	C103.305191,95.479736 103.345146,95.745682 103.727722,96.664314 
	C103.679764,97.123032 103.631798,97.581741 103.276924,98.515152 
	C103.518204,99.344910 103.759476,100.174660 104.230972,101.171867 
	C104.230972,101.171867 104.195778,101.454353 104.262886,102.039047 
	C104.480965,102.359795 104.699043,102.680534 105.395248,103.479424 
	C107.595238,105.002022 109.795227,106.524612 112.002243,108.523911 
	C112.002243,108.523911 112.006531,109.000999 111.345711,109.291550 
M171.958664,86.534622 
	C166.516739,86.355782 161.074188,86.075951 155.633530,86.108490 
	C154.830322,86.113289 154.035950,87.596519 153.237488,88.395721 
	C154.076675,89.183395 154.792816,90.330482 155.785339,90.670219 
	C157.106018,91.122253 158.641907,90.945564 160.608429,91.072830 
	C160.608429,95.641815 160.718948,99.924408 160.573364,104.198280 
	C160.457443,107.601501 161.590332,108.868858 165.647125,107.140259 
	C165.647125,101.966629 165.647125,96.558281 165.647125,91.701218 
	C168.305099,89.866661 172.783646,92.549309 171.958664,86.534622 
M160.000076,115.512039 
	C160.667633,118.208099 161.335190,120.904160 162.002747,123.600212 
	C162.759796,123.496109 163.516861,123.392006 164.273911,123.287903 
	C164.516602,120.458389 165.079315,117.606529 164.883850,114.807610 
	C164.763474,113.083496 163.485901,111.440178 162.727890,109.760582 
	C161.818588,111.393402 160.909286,113.026230 160.000076,115.512039 
z"/>
<path fill="#093667" opacity="1.000000" stroke="none" 
	d="
M21.782888,107.024178 
	C21.834280,99.932350 21.885672,92.840530 21.985519,85.315933 
	C22.033976,84.883163 21.966482,84.934380 21.966482,84.934387 
	C28.450026,84.913200 34.935875,84.778412 41.416321,84.909950 
	C45.889473,85.000740 47.629890,87.327362 47.030960,91.582649 
	C46.593639,94.689743 46.510063,97.851379 45.977924,100.938576 
	C45.660099,102.782417 44.780994,104.529518 43.765739,106.615822 
	C43.137566,106.950340 43.009239,107.090858 42.992302,107.333092 
	C41.927608,107.538635 40.862919,107.744179 38.987198,107.945663 
	C36.797443,107.900345 35.418724,107.859085 33.781567,107.638824 
	C32.334518,107.577599 31.145908,107.695381 29.567577,107.858932 
	C28.133238,107.876038 27.088619,107.847382 25.933014,107.693497 
	C25.533335,107.651764 25.244644,107.735252 24.592272,107.865227 
	C23.495659,107.923378 22.762726,107.935059 22.029795,107.946732 
	C22.029795,107.946732 22.141054,107.774048 22.170479,107.540359 
	C22.153679,107.075439 22.014673,106.981270 21.782888,107.024178 
M35.495846,97.980309 
	C34.170155,97.981339 32.749180,98.282486 31.545166,97.900246 
	C30.304237,97.506287 29.274599,96.446793 28.152515,95.678490 
	C29.232153,95.035080 30.262909,93.964722 31.401289,93.834381 
	C34.021145,93.534416 36.749805,93.998871 39.319214,93.526733 
	C40.508549,93.308182 41.428841,91.625488 42.471107,90.606583 
	C41.410961,89.783058 40.405914,88.351395 39.280399,88.249435 
	C35.828747,87.936714 32.284943,87.811722 28.874477,88.297836 
	C27.580606,88.482254 25.708282,90.442337 25.571877,91.747017 
	C25.248352,94.841415 25.621941,98.056549 26.107285,101.161377 
	C26.274324,102.229942 27.569090,103.906441 28.415834,103.948341 
	C32.018585,104.126648 35.681217,104.034325 39.245346,103.514900 
	C40.402710,103.346237 41.326420,101.574310 42.356998,100.535706 
	C41.374485,99.687248 40.500832,98.615295 39.372707,98.065804 
	C38.567776,97.673729 37.420956,97.983566 35.495846,97.980309 
z"/>
<path fill="#17416E" opacity="1.000000" stroke="none" 
	d="
M94.997505,92.923363 
	C101.025444,97.000893 101.483910,101.200577 95.906570,106.784363 
	C94.907417,107.198753 94.483459,107.348465 94.059502,107.498169 
	C93.256569,107.477654 92.453629,107.457130 91.022400,107.417572 
	C90.054008,107.507210 89.713921,107.615891 89.373833,107.724564 
	C85.515739,107.624214 81.657639,107.523865 77.052399,107.360031 
	C75.868607,107.203255 75.431961,107.109962 74.995323,107.016670 
	C74.995323,107.016670 75.003059,107.000031 74.978157,106.626419 
	C74.920433,105.502556 74.887611,104.752312 74.854790,104.002060 
	C75.681900,103.731171 76.509010,103.460281 77.915428,103.220596 
	C78.664261,103.189156 78.833778,103.126503 79.003288,103.063850 
	C79.447815,103.151253 79.892342,103.238655 80.917389,103.339539 
	C81.665977,103.284409 81.834053,103.215782 82.002129,103.147148 
	C85.094032,103.269997 88.214012,103.682777 91.265404,103.387299 
	C92.685135,103.249817 93.971741,101.737656 95.352539,100.047287 
	C94.242958,98.677872 93.099541,98.109802 91.956123,97.541733 
	C91.513885,97.476448 91.071640,97.411163 90.066292,97.306458 
	C89.344162,97.319313 89.185150,97.371590 89.026131,97.423866 
	C87.942032,97.369301 86.857941,97.314735 84.955299,97.216629 
	C82.424622,97.162971 80.712479,97.152847 79.000343,97.142731 
	C75.274834,95.157219 74.279015,91.975586 75.338272,87.453979 
	C77.109848,85.877083 78.553497,84.883324 79.997154,83.889565 
	C80.166306,83.918602 80.335449,83.947632 81.125626,83.986954 
	C82.497826,83.937752 83.249001,83.878258 84.000168,83.818771 
	C85.068863,83.860321 86.137558,83.901871 88.048515,83.958206 
	C91.599068,83.925713 94.307350,83.878448 97.015640,83.831184 
	C97.015640,83.831184 97.478340,83.971680 97.839310,84.238937 
	C98.317871,84.645668 98.435455,84.785149 98.553040,84.924629 
	C98.505280,85.703285 98.457520,86.481934 98.131516,87.792419 
	C97.754395,88.490486 97.655502,88.656731 97.556610,88.822968 
	C92.331039,88.772476 87.105476,88.721977 81.069756,88.927765 
	C80.392403,90.223640 80.525192,91.263245 80.657990,92.302841 
	C80.657990,92.302841 80.702911,92.281273 81.070496,92.548416 
	C85.957886,92.851494 90.477699,92.887428 94.997505,92.923363 
z"/>
<path fill="#153F6B" opacity="1.000000" stroke="none" 
	d="
M104.195778,101.454353 
	C104.195778,101.454353 104.230972,101.171867 104.130035,100.709869 
	C103.880684,99.512070 103.732262,98.776260 103.583847,98.040459 
	C103.631798,97.581741 103.679764,97.123032 103.770798,96.085365 
	C103.791763,95.337151 103.769653,95.167877 103.747543,94.998596 
	C104.476814,93.336479 105.206078,91.674362 106.318977,89.572495 
	C106.904778,88.799362 107.106949,88.465965 107.309120,88.132568 
	C108.673225,87.484680 110.037323,86.836784 112.147873,86.113831 
	C115.596863,85.987823 118.299408,85.936890 121.001953,85.885956 
	C123.613365,88.372719 126.224770,90.859489 128.941956,94.011719 
	C129.146042,95.132294 129.244354,95.587410 129.342651,96.042519 
	C129.311661,96.480652 129.280670,96.918793 129.164291,98.001549 
	C129.081284,99.099121 129.083649,99.552071 129.086029,100.005020 
	C127.368362,105.231171 123.552185,107.719612 117.733543,108.663910 
	C116.458244,109.075806 115.719498,109.119431 114.741745,109.088882 
	C114.339485,109.049110 114.176231,109.083527 113.816490,109.036163 
	C113.620003,108.954376 113.195740,108.920052 113.088928,108.656189 
	C112.653152,108.277283 112.324181,108.162247 111.995216,108.047211 
	C109.795227,106.524612 107.595238,105.002022 105.149666,102.935913 
	C104.667984,102.079720 104.431877,101.767036 104.195778,101.454353 
M124.836380,94.100822 
	C121.717796,90.184738 113.922188,88.895798 110.087357,91.662193 
	C107.086159,93.827217 106.477959,100.278336 109.720650,101.565201 
	C113.307968,102.988823 117.758995,103.332581 121.600304,102.708656 
	C125.378159,102.095032 125.313400,98.184227 124.836380,94.100822 
z"/>
<path fill="#F3F4F3" opacity="1.000000" stroke="none" 
	d="
M38.008972,109.986946 
	C46.911964,110.098206 47.765251,111.987350 44.538845,123.586800 
	C40.193951,123.586800 36.005360,123.789673 31.858057,123.465034 
	C30.588892,123.365685 29.433043,121.818672 28.225300,120.934608 
	C29.534126,120.470108 30.824629,119.688538 32.155853,119.611603 
	C34.447872,119.479141 36.812824,120.102852 39.050953,119.767349 
	C40.094963,119.610863 41.398701,118.065155 41.659431,116.935555 
	C41.825012,116.218163 40.348312,114.369064 39.505077,114.300858 
	C35.718033,113.994492 31.882635,113.986931 28.093199,114.263008 
	C27.341831,114.317749 26.363506,116.011490 26.115267,117.092979 
	C25.751757,118.676674 26.237751,120.467903 25.812998,122.020576 
	C25.529339,123.057495 24.291912,123.833488 23.481316,124.726257 
	C22.681723,123.820679 21.230801,122.938850 21.196747,122.005348 
	C21.058851,118.225563 21.356894,114.429878 22.213696,110.316849 
	C27.958536,109.991409 32.983753,109.989182 38.008972,109.986946 
z"/>
<path fill="#17416E" opacity="1.000000" stroke="none" 
	d="
M172.101501,86.974434 
	C172.783646,92.549309 168.305099,89.866661 165.647125,91.701218 
	C165.647125,96.558281 165.647125,101.966629 165.647125,107.140259 
	C161.590332,108.868858 160.457443,107.601501 160.573364,104.198280 
	C160.718948,99.924408 160.608429,95.641815 160.608429,91.072830 
	C158.641907,90.945564 157.106018,91.122253 155.785339,90.670219 
	C154.792816,90.330482 154.076675,89.183395 153.237488,88.395721 
	C154.035950,87.596519 154.830322,86.113289 155.633530,86.108490 
	C161.074188,86.075951 166.516739,86.355782 172.101501,86.974434 
z"/>
<path fill="#073465" opacity="1.000000" stroke="none" 
	d="
M57.987091,108.042885 
	C57.542679,102.431107 57.098267,96.819321 56.647419,91.126328 
	C55.976486,91.273445 54.712322,91.550644 53.104641,91.903168 
	C53.104641,91.073235 52.769085,89.962425 53.159084,89.566727 
	C55.696556,86.992195 57.475773,83.092804 62.590927,84.435143 
	C63.010109,92.294746 62.993523,99.632378 62.976940,106.970016 
	C62.976940,106.970016 62.999203,106.997047 62.633320,107.120102 
	C60.840656,107.509727 59.413872,107.776306 57.987091,108.042885 
z"/>
<path fill="#F3F2F2" opacity="1.000000" stroke="none" 
	d="
M113.195740,108.920052 
	C113.195740,108.920052 113.620003,108.954376 113.914597,109.150650 
	C114.209190,109.346931 114.626114,109.420303 114.626114,109.420303 
	C114.626114,109.420303 114.980759,109.163055 114.980759,109.163055 
	C115.719498,109.119431 116.458244,109.075806 117.566635,109.002365 
	C123.645515,110.331856 128.204010,112.913406 128.599106,119.548569 
	C128.655167,120.490334 127.841133,121.483917 127.429810,122.453514 
	C126.626335,121.798798 125.502403,121.307983 125.070389,120.463280 
	C121.795662,114.060379 120.667496,113.458076 113.644798,113.996841 
	C108.812485,114.367569 107.238297,117.427834 106.692390,121.605972 
	C106.644135,121.975304 106.091743,122.278770 105.755455,122.631775 
	C101.933014,117.697441 104.582214,111.519432 111.973923,109.135864 
	C112.800011,108.960129 112.997871,108.940094 113.195740,108.920052 
z"/>
<path fill="#103B6A" opacity="1.000000" stroke="none" 
	d="
M133.801315,106.026382 
	C133.715744,100.339119 133.630157,94.651848 133.589142,88.188103 
	C133.790619,86.954170 133.947525,86.496727 134.104431,86.039291 
	C138.232956,86.035362 142.378647,85.815727 146.480850,86.142258 
	C147.955109,86.259613 149.324661,87.692146 150.742004,88.524475 
	C149.270798,89.320114 147.844559,90.223801 146.308334,90.863235 
	C145.600464,91.157883 144.677368,90.935425 143.029694,90.928757 
	C140.849991,90.960602 139.492477,91.011147 137.851151,91.360786 
	C137.340225,96.717323 137.113098,101.774750 136.581848,106.741302 
	C135.452255,106.442413 134.626785,106.234398 133.801315,106.026382 
z"/>
<path fill="#F2F2F1" opacity="1.000000" stroke="none" 
	d="
M94.993477,119.998093 
	C95.814705,115.061737 93.579155,113.541527 88.845360,113.920822 
	C84.376335,114.278908 79.856102,113.997696 75.358391,113.997696 
	C75.267761,113.376900 75.177132,112.756111 75.086510,112.135315 
	C76.100853,111.489967 77.097282,110.322525 78.132545,110.287018 
	C83.433800,110.105171 88.797607,109.756119 94.037544,110.356209 
	C98.950119,110.918808 100.291565,115.419403 97.111671,120.764236 
	C95.997475,120.511955 95.495476,120.255028 94.993477,119.998093 
z"/>
<path fill="#F1F3F4" opacity="1.000000" stroke="none" 
	d="
M57.819832,108.421478 
	C59.413872,107.776306 60.840656,107.509727 62.619144,107.110756 
	C62.977283,111.109932 63.286041,115.274551 62.839775,119.356628 
	C62.663868,120.965683 60.803608,122.390602 59.710342,123.899376 
	C58.808567,122.471230 57.223419,121.081451 57.140659,119.607330 
	C56.939594,116.025780 57.436722,112.405022 57.819832,108.421478 
z"/>
<path fill="#F6F6F5" opacity="1.000000" stroke="none" 
	d="
M94.527130,119.998451 
	C95.495476,120.255028 95.997475,120.511955 96.754341,120.890289 
	C96.428764,121.766693 95.911850,123.114517 95.257996,123.184593 
	C89.028625,123.852135 82.776031,124.303093 76.393066,123.887428 
	C81.216087,117.577415 88.135857,121.002625 94.527130,119.998451 
z"/>
<path fill="#F3F3F3" opacity="1.000000" stroke="none" 
	d="
M136.988358,109.996605 
	C137.009811,110.961281 137.166122,111.945580 137.029160,112.887215 
	C136.461929,116.786942 138.003693,118.453705 141.989014,118.043846 
	C143.674973,117.870476 145.409210,118.166588 147.158508,119.316460 
	C143.134201,120.128090 139.109894,120.939720 134.509048,121.867630 
	C132.733551,118.220757 132.151794,113.699432 134.508087,108.468033 
	C135.271637,107.943451 135.593491,107.993843 136.020523,108.467178 
	C136.421158,109.208527 136.704758,109.602570 136.988358,109.996605 
z"/>
<path fill="#F3F4F4" opacity="1.000000" stroke="none" 
	d="
M160.000031,115.085541 
	C160.909286,113.026230 161.818588,111.393402 162.727875,109.760582 
	C163.485901,111.440178 164.763474,113.083496 164.883850,114.807610 
	C165.079315,117.606529 164.516602,120.458389 164.273911,123.287903 
	C163.516861,123.392006 162.759796,123.496109 162.002747,123.600212 
	C161.335190,120.904160 160.667633,118.208099 160.000031,115.085541 
z"/>
<path fill="#23486F" opacity="1.000000" stroke="none" 
	d="
M136.885971,106.832184 
	C137.113098,101.774750 137.340225,96.717323 137.800720,91.790497 
	C137.340271,96.858131 140.864304,94.712296 143.008591,94.883430 
	C145.093185,95.890678 149.707108,93.058258 148.818604,99.041855 
	C145.358337,99.041855 141.948120,99.041855 138.012817,99.041855 
	C138.012817,101.654556 138.012817,103.907501 137.847931,106.700432 
	C137.683060,107.240417 137.311691,107.346222 137.203735,107.218971 
	C137.095795,107.091721 136.885971,106.832184 136.885971,106.832184 
z"/>
<path fill="#F0FDFF" opacity="1.000000" stroke="none" 
	d="
M38.119492,109.747437 
	C32.983753,109.989182 27.958536,109.991409 22.466415,109.989494 
	C22.004568,109.532356 22.009623,109.079369 22.022236,108.286560 
	C22.762726,107.935059 23.495659,107.923378 24.864338,107.949509 
	C25.681389,107.931122 25.862694,107.874924 26.044001,107.818726 
	C27.088619,107.847382 28.133238,107.876038 29.968773,107.958992 
	C31.853127,107.948128 32.946564,107.882973 34.040001,107.817818 
	C35.418724,107.859085 36.797443,107.900345 38.580696,108.028694 
	C38.733486,108.579834 38.481747,109.043877 38.119492,109.747437 
z"/>
<path fill="#F1F3F4" opacity="1.000000" stroke="none" 
	d="
M63.245132,106.655838 
	C62.993523,99.632378 63.010109,92.294746 62.990158,84.491989 
	C63.140194,91.465141 63.326756,98.903397 63.245132,106.655838 
z"/>
<path fill="#F3FCFD" opacity="1.000000" stroke="none" 
	d="
M143.006577,94.505219 
	C140.864304,94.712296 137.340271,96.858131 138.084503,91.491394 
	C139.492477,91.011147 140.849991,90.960602 142.604187,91.005669 
	C143.002106,92.109856 143.003326,93.118431 143.006577,94.505219 
z"/>
<path fill="#E9F2F6" opacity="1.000000" stroke="none" 
	d="
M94.660751,92.685532 
	C90.477699,92.887428 85.957886,92.851494 81.086349,92.567635 
	C85.264412,92.362373 89.794212,92.405037 94.660751,92.685532 
z"/>
<path fill="#E9F2F6" opacity="1.000000" stroke="none" 
	d="
M79.713623,83.682137 
	C78.553497,84.883324 77.109848,85.877083 75.383240,87.046204 
	C75.018036,84.209755 75.995674,82.422722 79.713623,83.682137 
z"/>
<path fill="#E3EDF3" opacity="1.000000" stroke="none" 
	d="
M120.679153,85.669197 
	C118.299408,85.936890 115.596863,85.987823 112.447060,85.981873 
	C114.785316,85.767471 117.570839,85.609955 120.679153,85.669197 
z"/>
<path fill="#E9F2F6" opacity="1.000000" stroke="none" 
	d="
M97.010040,83.623123 
	C94.307350,83.878448 91.599068,83.925713 88.445618,83.895630 
	C90.711319,83.547951 93.422173,83.277618 96.566513,83.003647 
	C97.000000,83.000000 96.998383,82.998833 96.998383,82.998833 
	C96.998383,82.998833 97.004440,83.415062 97.010040,83.623123 
z"/>
<path fill="#E9F2F6" opacity="1.000000" stroke="none" 
	d="
M92.050964,97.844185 
	C93.099541,98.109802 94.242958,98.677872 95.329185,99.604897 
	C94.229935,99.358116 93.187866,98.752373 92.050964,97.844185 
z"/>
<path fill="#23486F" opacity="1.000000" stroke="none" 
	d="
M135.903488,108.119873 
	C135.593491,107.993843 135.271637,107.943451 134.702637,108.040146 
	C134.467361,108.111603 134.367691,107.945908 134.120880,107.712448 
	C133.728134,107.345535 133.582169,107.212082 133.436218,107.078636 
	C133.471619,106.894386 133.507004,106.710144 133.671844,106.276146 
	C134.626785,106.234398 135.452255,106.442413 136.581848,106.741302 
	C136.885971,106.832184 137.095795,107.091721 137.087646,107.393211 
	C136.687500,107.836426 136.295486,107.978149 135.903488,108.119873 
z"/>
<path fill="#E9F2F6" opacity="1.000000" stroke="none" 
	d="
M79.279633,97.353302 
	C80.712479,97.152847 82.424622,97.162971 84.551414,97.278122 
	C83.163689,97.443405 81.361313,97.503647 79.279633,97.353302 
z"/>
<path fill="#E3EDF3" opacity="1.000000" stroke="none" 
	d="
M129.595490,95.979736 
	C129.244354,95.587410 129.146042,95.132294 129.091339,94.327240 
	C129.372726,94.623848 129.610519,95.270393 129.595490,95.979736 
z"/>
<path fill="#E3EDF3" opacity="1.000000" stroke="none" 
	d="
M136.020523,108.467186 
	C136.295486,107.978149 136.687500,107.836426 137.195587,107.520462 
	C137.311691,107.346222 137.683060,107.240417 137.857208,107.156998 
	C137.769302,107.856873 137.507248,108.640160 137.116776,109.710022 
	C136.704758,109.602570 136.421158,109.208527 136.020523,108.467186 
z"/>
<path fill="#E9F2F6" opacity="1.000000" stroke="none" 
	d="
M83.780106,83.640892 
	C83.249001,83.878258 82.497826,83.937752 81.375328,83.924362 
	C81.856018,83.721992 82.708031,83.592506 83.780106,83.640892 
z"/>
<path fill="#E9F2F6" opacity="1.000000" stroke="none" 
	d="
M74.658539,104.219833 
	C74.887611,104.752312 74.920433,105.502556 74.969559,106.628052 
	C74.811333,106.148071 74.636803,105.292839 74.658539,104.219833 
z"/>
<path fill="#E3EDF3" opacity="1.000000" stroke="none" 
	d="
M133.871872,86.089752 
	C133.947525,86.496727 133.790619,86.954170 133.475082,87.737816 
	C133.424088,87.422752 133.531693,86.781487 133.871872,86.089752 
z"/>
<path fill="#E9F2F6" opacity="1.000000" stroke="none" 
	d="
M103.430389,98.277802 
	C103.732262,98.776260 103.880684,99.512070 104.014931,100.626144 
	C103.759476,100.174660 103.518204,99.344910 103.430389,98.277802 
z"/>
<path fill="#E9F2F6" opacity="1.000000" stroke="none" 
	d="
M80.740608,91.898407 
	C80.525192,91.263245 80.392403,90.223640 80.633499,89.106285 
	C80.945999,89.850342 80.884613,90.672157 80.740608,91.898407 
z"/>
<path fill="#E3EDF3" opacity="1.000000" stroke="none" 
	d="
M129.263077,99.848030 
	C129.083649,99.552071 129.081284,99.099121 129.205170,98.329208 
	C129.367661,98.571846 129.403885,99.131447 129.263077,99.848030 
z"/>
<path fill="#E9F2F6" opacity="1.000000" stroke="none" 
	d="
M75.105865,107.225250 
	C75.431961,107.109962 75.868607,107.203255 76.604637,107.446960 
	C76.341484,107.542870 75.778946,107.488350 75.105865,107.225250 
z"/>
<path fill="#E9F2F6" opacity="1.000000" stroke="none" 
	d="
M94.257256,107.621506 
	C94.483459,107.348465 94.907417,107.198753 95.671303,107.043732 
	C95.492493,107.273888 94.973747,107.509369 94.257256,107.621506 
z"/>
<path fill="#E3EDF3" opacity="1.000000" stroke="none" 
	d="
M133.392212,107.255272 
	C133.582169,107.212082 133.728134,107.345535 134.026581,107.733719 
	C133.902115,107.802925 133.625153,107.617416 133.392212,107.255272 
z"/>
<path fill="#E9F2F6" opacity="1.000000" stroke="none" 
	d="
M97.000580,83.000801 
	C97.001167,83.001602 97.193199,82.685913 97.193199,82.685913 
	C97.193199,82.685913 97.174896,82.912560 97.086639,82.955696 
	C96.998383,82.998833 97.000000,83.000000 97.000580,83.000801 
z"/>
<path fill="#436383" opacity="1.000000" stroke="none" 
	d="
M22.000114,84.863922 
	C21.966253,84.844688 22.036819,84.813484 22.001652,84.873932 
	C21.966482,84.934380 22.033976,84.883163 22.000114,84.863922 
z"/>
<path fill="#E9F2F6" opacity="1.000000" stroke="none" 
	d="
M98.604233,84.765396 
	C98.435455,84.785149 98.317871,84.645668 98.080154,84.260330 
	C98.191818,84.211700 98.423615,84.408936 98.604233,84.765396 
z"/>
<path fill="#E9F2F6" opacity="1.000000" stroke="none" 
	d="
M97.742867,88.837418 
	C97.655502,88.656731 97.754395,88.490486 98.105904,88.181778 
	C98.215393,88.310158 98.072258,88.581009 97.742867,88.837418 
z"/>
<path fill="#E3EDF3" opacity="1.000000" stroke="none" 
	d="
M107.041473,88.259186 
	C107.106949,88.465965 106.904778,88.799362 106.430061,89.252380 
	C106.362953,89.043266 106.568390,88.714531 107.041473,88.259186 
z"/>
<path fill="#E9F2F6" opacity="1.000000" stroke="none" 
	d="
M113.088928,108.656189 
	C112.997871,108.940094 112.800011,108.960129 112.304337,108.990585 
	C112.006531,109.000999 112.002243,108.523911 111.998734,108.285561 
	C112.324181,108.162247 112.653152,108.277283 113.088928,108.656189 
z"/>
<path fill="#E9F2F6" opacity="1.000000" stroke="none" 
	d="
M103.623688,95.090469 
	C103.769653,95.167877 103.791763,95.337151 103.716797,95.743301 
	C103.345146,95.745682 103.305191,95.479736 103.623688,95.090469 
z"/>
<path fill="#E9F2F6" opacity="1.000000" stroke="none" 
	d="
M89.118347,97.535477 
	C89.185150,97.371590 89.344162,97.319313 89.733521,97.366867 
	C89.963852,97.466682 89.622765,97.709427 89.622765,97.709427 
	C89.622765,97.709427 89.210571,97.647095 89.118347,97.535477 
z"/>
<path fill="#E9F2F6" opacity="1.000000" stroke="none" 
	d="
M104.229332,101.746704 
	C104.431877,101.767036 104.667984,102.079720 104.910599,102.696838 
	C104.699043,102.680534 104.480965,102.359795 104.229332,101.746704 
z"/>
<path fill="#E9F2F6" opacity="1.000000" stroke="none" 
	d="
M89.624573,107.795822 
	C89.713921,107.615891 90.054008,107.507210 90.636856,107.533241 
	C90.544846,107.734322 90.210083,107.800697 89.624573,107.795822 
z"/>
<path fill="#436383" opacity="1.000000" stroke="none" 
	d="
M43.154121,107.393768 
	C43.009239,107.090858 43.137566,106.950340 43.529606,106.928391 
	C43.718094,107.228722 43.596096,107.398460 43.154121,107.393768 
z"/>
<path fill="#436383" opacity="1.000000" stroke="none" 
	d="
M21.693701,107.162201 
	C22.014673,106.981270 22.153679,107.075439 22.153587,107.439056 
	C22.107267,107.571434 21.778357,107.579437 21.778357,107.579437 
	C21.778357,107.579437 21.604513,107.300217 21.693701,107.162201 
z"/>
<path fill="#E9F2F6" opacity="1.000000" stroke="none" 
	d="
M78.910797,102.922585 
	C78.833778,103.126503 78.664261,103.189156 78.246429,103.142967 
	C78.271523,102.949860 78.544914,102.865593 78.910797,102.922585 
z"/>
<path fill="#E9F2F6" opacity="1.000000" stroke="none" 
	d="
M81.910522,102.996666 
	C81.834053,103.215782 81.665977,103.284409 81.246895,103.247215 
	C81.270226,103.042992 81.544571,102.944588 81.910522,102.996666 
z"/>
<path fill="#DEEAF2" opacity="1.000000" stroke="none" 
	d="
M35.961273,97.980247 
	C37.420956,97.983566 38.567776,97.673729 39.372707,98.065804 
	C40.500832,98.615295 41.374485,99.687248 42.357002,100.535706 
	C41.326420,101.574310 40.402710,103.346237 39.245346,103.514900 
	C35.681217,104.034325 32.018585,104.126648 28.415834,103.948341 
	C27.569090,103.906441 26.274324,102.229942 26.107285,101.161377 
	C25.621941,98.056549 25.248352,94.841415 25.571877,91.747017 
	C25.708282,90.442337 27.580606,88.482254 28.874477,88.297836 
	C32.284943,87.811722 35.828747,87.936714 39.280399,88.249435 
	C40.405914,88.351395 41.410961,89.783058 42.471107,90.606583 
	C41.428841,91.625488 40.508549,93.308182 39.319214,93.526733 
	C36.749805,93.998871 34.021145,93.534416 31.401289,93.834381 
	C30.262909,93.964722 29.232153,95.035080 28.152515,95.678490 
	C29.274599,96.446793 30.304237,97.506287 31.545166,97.900246 
	C32.749180,98.282486 34.170155,97.981339 35.961273,97.980247 
z"/>
<path fill="#436383" opacity="1.000000" stroke="none" 
	d="
M33.781567,107.638809 
	C32.946564,107.882973 31.853127,107.948128 30.358494,107.913231 
	C31.145908,107.695381 32.334518,107.577599 33.781567,107.638809 
z"/>
<path fill="#436383" opacity="1.000000" stroke="none" 
	d="
M25.933014,107.693497 
	C25.862694,107.874924 25.681389,107.931122 25.228020,107.903030 
	C25.244644,107.735252 25.533335,107.651764 25.933014,107.693497 
z"/>
<path fill="#F0F6F9" opacity="1.000000" stroke="none" 
	d="
M124.923920,94.505730 
	C125.313400,98.184227 125.378159,102.095032 121.600304,102.708656 
	C117.758995,103.332581 113.307968,102.988823 109.720650,101.565201 
	C106.477959,100.278336 107.086159,93.827217 110.087357,91.662193 
	C113.922188,88.895798 121.717796,90.184738 124.923920,94.505730 
z"/>
<path fill="#E9F2F6" opacity="1.000000" stroke="none" 
	d="
M114.741745,109.088882 
	C114.980759,109.163055 114.626114,109.420303 114.626114,109.420303 
	C114.626114,109.420303 114.209190,109.346931 114.111084,109.232437 
	C114.176231,109.083527 114.339485,109.049110 114.741745,109.088882 
z"/>
</svg>